<mxfile host="app.diagrams.net" modified="2024-03-26T09:32:48.991Z" agent="Mozilla/5.0 (Windows NT 10.0; Win64; x64) AppleWebKit/537.36 (KHTML, like Gecko) Chrome/123.0.0.0 Safari/537.36" etag="xPNCVD9Mp582tJVqIPI9" version="24.1.0" type="device">
  <diagram id="C5RBs43oDa-KdzZeNtuy" name="Page-1">
    <mxGraphModel dx="2206" dy="1148" grid="1" gridSize="10" guides="1" tooltips="1" connect="1" arrows="1" fold="1" page="1" pageScale="1" pageWidth="827" pageHeight="1169" math="0" shadow="0">
      <root>
        <mxCell id="WIyWlLk6GJQsqaUBKTNV-0" />
        <mxCell id="WIyWlLk6GJQsqaUBKTNV-1" parent="WIyWlLk6GJQsqaUBKTNV-0" />
        <mxCell id="zkfFHV4jXpPFQw0GAbJ--0" value="PIzzaStore" style="swimlane;fontStyle=2;align=center;verticalAlign=top;childLayout=stackLayout;horizontal=1;startSize=26;horizontalStack=0;resizeParent=1;resizeLast=0;collapsible=1;marginBottom=0;rounded=0;shadow=0;strokeWidth=1;" parent="WIyWlLk6GJQsqaUBKTNV-1" vertex="1">
          <mxGeometry x="310" y="20" width="180" height="80" as="geometry">
            <mxRectangle x="230" y="140" width="160" height="26" as="alternateBounds" />
          </mxGeometry>
        </mxCell>
        <mxCell id="zkfFHV4jXpPFQw0GAbJ--4" value="" style="line;html=1;strokeWidth=1;align=left;verticalAlign=middle;spacingTop=-1;spacingLeft=3;spacingRight=3;rotatable=0;labelPosition=right;points=[];portConstraint=eastwest;" parent="zkfFHV4jXpPFQw0GAbJ--0" vertex="1">
          <mxGeometry y="26" width="180" height="8" as="geometry" />
        </mxCell>
        <mxCell id="vC2LmUWkRbwi-NhSBWyN-0" value="+MenuChoice();" style="text;html=1;align=center;verticalAlign=middle;resizable=0;points=[];autosize=1;strokeColor=none;fillColor=none;" vertex="1" parent="zkfFHV4jXpPFQw0GAbJ--0">
          <mxGeometry y="34" width="180" height="30" as="geometry" />
        </mxCell>
        <mxCell id="vC2LmUWkRbwi-NhSBWyN-1" value="Order" style="swimlane;fontStyle=2;align=center;verticalAlign=top;childLayout=stackLayout;horizontal=1;startSize=26;horizontalStack=0;resizeParent=1;resizeLast=0;collapsible=1;marginBottom=0;rounded=0;shadow=0;strokeWidth=1;" vertex="1" parent="WIyWlLk6GJQsqaUBKTNV-1">
          <mxGeometry x="570" y="160" width="180" height="170" as="geometry">
            <mxRectangle x="230" y="140" width="160" height="26" as="alternateBounds" />
          </mxGeometry>
        </mxCell>
        <mxCell id="vC2LmUWkRbwi-NhSBWyN-13" value="&lt;div&gt;+Order(int numberOfPizzas)&lt;/div&gt;&lt;div&gt;+Pizza Pizza&lt;/div&gt;&lt;div&gt;+Pizza Price&lt;/div&gt;&lt;div&gt;+TotalPrice&lt;/div&gt;&lt;div&gt;+OrderID&lt;/div&gt;&lt;div&gt;+DateTime&lt;/div&gt;&lt;div&gt;+OrderNumber&lt;/div&gt;&lt;div&gt;+NUmberOfPizzas&lt;/div&gt;&lt;div&gt;+List&amp;lt;Pizza&amp;gt;&lt;/div&gt;" style="text;html=1;align=center;verticalAlign=middle;resizable=0;points=[];autosize=1;strokeColor=none;fillColor=none;" vertex="1" parent="vC2LmUWkRbwi-NhSBWyN-1">
          <mxGeometry y="26" width="180" height="140" as="geometry" />
        </mxCell>
        <mxCell id="vC2LmUWkRbwi-NhSBWyN-9" value="+AddPIzzaToOrder()&lt;div&gt;+RemovePizzaFromOrder()&lt;/div&gt;&lt;div&gt;+OrderPriceTotal()&lt;/div&gt;&lt;div&gt;+ToString(OrderId &amp;amp; Date &amp;amp; TotalPrice)&lt;/div&gt;" style="whiteSpace=wrap;html=1;verticalAlign=top;fontStyle=2;startSize=26;rounded=0;shadow=0;strokeWidth=1;" vertex="1" parent="WIyWlLk6GJQsqaUBKTNV-1">
          <mxGeometry x="570" y="330" width="180" height="88" as="geometry" />
        </mxCell>
        <mxCell id="vC2LmUWkRbwi-NhSBWyN-17" value="" style="edgeStyle=orthogonalEdgeStyle;rounded=0;orthogonalLoop=1;jettySize=auto;html=1;" edge="1" parent="WIyWlLk6GJQsqaUBKTNV-1" source="vC2LmUWkRbwi-NhSBWyN-15" target="vC2LmUWkRbwi-NhSBWyN-16">
          <mxGeometry relative="1" as="geometry" />
        </mxCell>
        <mxCell id="vC2LmUWkRbwi-NhSBWyN-15" value="Pizza" style="rounded=0;whiteSpace=wrap;html=1;" vertex="1" parent="WIyWlLk6GJQsqaUBKTNV-1">
          <mxGeometry x="50" y="150" width="200" height="30" as="geometry" />
        </mxCell>
        <mxCell id="vC2LmUWkRbwi-NhSBWyN-19" value="" style="edgeStyle=orthogonalEdgeStyle;rounded=0;orthogonalLoop=1;jettySize=auto;html=1;" edge="1" parent="WIyWlLk6GJQsqaUBKTNV-1" source="vC2LmUWkRbwi-NhSBWyN-16" target="vC2LmUWkRbwi-NhSBWyN-18">
          <mxGeometry relative="1" as="geometry" />
        </mxCell>
        <mxCell id="vC2LmUWkRbwi-NhSBWyN-16" value="&lt;div&gt;+Pizza(string pizzaName, int price)&lt;/div&gt;+PizzaName&lt;div&gt;+Price&lt;/div&gt;&lt;div&gt;&lt;br&gt;&lt;/div&gt;" style="whiteSpace=wrap;html=1;rounded=0;" vertex="1" parent="WIyWlLk6GJQsqaUBKTNV-1">
          <mxGeometry x="50" y="180" width="200" height="140" as="geometry" />
        </mxCell>
        <mxCell id="vC2LmUWkRbwi-NhSBWyN-18" value="+ToString(PizzaName &amp;amp; Price)" style="whiteSpace=wrap;html=1;rounded=0;" vertex="1" parent="WIyWlLk6GJQsqaUBKTNV-1">
          <mxGeometry x="50" y="320" width="200" height="70" as="geometry" />
        </mxCell>
        <mxCell id="vC2LmUWkRbwi-NhSBWyN-20" value="MenuCatalog" style="rounded=0;whiteSpace=wrap;html=1;" vertex="1" parent="WIyWlLk6GJQsqaUBKTNV-1">
          <mxGeometry x="50" y="430" width="200" height="30" as="geometry" />
        </mxCell>
        <mxCell id="vC2LmUWkRbwi-NhSBWyN-21" value="+MenuCatalog()&lt;div&gt;+List&amp;lt;Pizza&amp;gt;&lt;/div&gt;&lt;div&gt;+Pizza Pizza&lt;/div&gt;&lt;div&gt;+TotalPrice&lt;/div&gt;" style="whiteSpace=wrap;html=1;rounded=0;" vertex="1" parent="WIyWlLk6GJQsqaUBKTNV-1">
          <mxGeometry x="50" y="460" width="200" height="60" as="geometry" />
        </mxCell>
        <mxCell id="vC2LmUWkRbwi-NhSBWyN-23" value="+PrintMenu()&lt;div&gt;+NewPizza()&lt;/div&gt;&lt;div&gt;+GetPizza()&lt;/div&gt;&lt;div&gt;+UpdatePizza()&lt;/div&gt;&lt;div&gt;+ToString()&lt;/div&gt;" style="whiteSpace=wrap;html=1;rounded=0;" vertex="1" parent="WIyWlLk6GJQsqaUBKTNV-1">
          <mxGeometry x="50" y="520" width="200" height="80" as="geometry" />
        </mxCell>
        <mxCell id="vC2LmUWkRbwi-NhSBWyN-25" value="PizzaNotFoundExcep" style="rounded=0;whiteSpace=wrap;html=1;" vertex="1" parent="WIyWlLk6GJQsqaUBKTNV-1">
          <mxGeometry x="50" y="650" width="200" height="20" as="geometry" />
        </mxCell>
        <mxCell id="vC2LmUWkRbwi-NhSBWyN-26" value="+PizzaNotFoundExcep()&lt;div&gt;+PIzzaNotFountExcep(string message) : base(message)&lt;/div&gt;" style="whiteSpace=wrap;html=1;rounded=0;" vertex="1" parent="WIyWlLk6GJQsqaUBKTNV-1">
          <mxGeometry x="50" y="670" width="200" height="80" as="geometry" />
        </mxCell>
        <mxCell id="vC2LmUWkRbwi-NhSBWyN-43" value="1" style="endArrow=open;html=1;endSize=12;startArrow=diamondThin;startSize=14;startFill=1;edgeStyle=orthogonalEdgeStyle;align=left;verticalAlign=bottom;rounded=0;entryX=0.5;entryY=0;entryDx=0;entryDy=0;exitX=0.5;exitY=1;exitDx=0;exitDy=0;" edge="1" parent="WIyWlLk6GJQsqaUBKTNV-1" source="vC2LmUWkRbwi-NhSBWyN-18" target="vC2LmUWkRbwi-NhSBWyN-20">
          <mxGeometry x="-1" y="3" relative="1" as="geometry">
            <mxPoint x="580" y="380" as="sourcePoint" />
            <mxPoint x="740" y="380" as="targetPoint" />
          </mxGeometry>
        </mxCell>
        <mxCell id="vC2LmUWkRbwi-NhSBWyN-45" value="1" style="endArrow=open;html=1;endSize=12;startArrow=diamondThin;startSize=14;startFill=1;edgeStyle=orthogonalEdgeStyle;align=left;verticalAlign=bottom;rounded=0;entryX=0.5;entryY=0;entryDx=0;entryDy=0;exitX=0.5;exitY=1;exitDx=0;exitDy=0;" edge="1" parent="WIyWlLk6GJQsqaUBKTNV-1" source="vC2LmUWkRbwi-NhSBWyN-23" target="vC2LmUWkRbwi-NhSBWyN-25">
          <mxGeometry x="-1" y="3" relative="1" as="geometry">
            <mxPoint x="580" y="380" as="sourcePoint" />
            <mxPoint x="740" y="380" as="targetPoint" />
          </mxGeometry>
        </mxCell>
        <mxCell id="vC2LmUWkRbwi-NhSBWyN-46" value="1&amp;nbsp; *&amp;nbsp;" style="endArrow=open;html=1;endSize=12;startArrow=diamondThin;startSize=14;startFill=0;edgeStyle=orthogonalEdgeStyle;rounded=0;entryX=0;entryY=0.267;entryDx=0;entryDy=0;entryPerimeter=0;exitX=0.5;exitY=0;exitDx=0;exitDy=0;" edge="1" parent="WIyWlLk6GJQsqaUBKTNV-1" source="vC2LmUWkRbwi-NhSBWyN-15" target="vC2LmUWkRbwi-NhSBWyN-0">
          <mxGeometry relative="1" as="geometry">
            <mxPoint x="580" y="380" as="sourcePoint" />
            <mxPoint x="740" y="380" as="targetPoint" />
          </mxGeometry>
        </mxCell>
        <mxCell id="vC2LmUWkRbwi-NhSBWyN-48" value="1" style="edgeLabel;resizable=0;html=1;align=right;verticalAlign=top;" connectable="0" vertex="1" parent="vC2LmUWkRbwi-NhSBWyN-46">
          <mxGeometry x="1" relative="1" as="geometry" />
        </mxCell>
        <mxCell id="vC2LmUWkRbwi-NhSBWyN-49" value="1&amp;nbsp; *&amp;nbsp;" style="endArrow=open;html=1;endSize=12;startArrow=diamondThin;startSize=14;startFill=0;edgeStyle=orthogonalEdgeStyle;rounded=0;entryX=0.5;entryY=1;entryDx=0;entryDy=0;exitX=0.75;exitY=0;exitDx=0;exitDy=0;" edge="1" parent="WIyWlLk6GJQsqaUBKTNV-1" source="vC2LmUWkRbwi-NhSBWyN-1" target="zkfFHV4jXpPFQw0GAbJ--0">
          <mxGeometry relative="1" as="geometry">
            <mxPoint x="440" y="140" as="sourcePoint" />
            <mxPoint x="320" y="72" as="targetPoint" />
          </mxGeometry>
        </mxCell>
        <mxCell id="vC2LmUWkRbwi-NhSBWyN-50" value="1" style="edgeLabel;resizable=0;html=1;align=right;verticalAlign=top;" connectable="0" vertex="1" parent="vC2LmUWkRbwi-NhSBWyN-49">
          <mxGeometry x="1" relative="1" as="geometry" />
        </mxCell>
        <mxCell id="vC2LmUWkRbwi-NhSBWyN-52" value="" style="endArrow=none;html=1;edgeStyle=orthogonalEdgeStyle;rounded=0;exitX=1;exitY=0.5;exitDx=0;exitDy=0;entryX=-0.022;entryY=0.429;entryDx=0;entryDy=0;entryPerimeter=0;" edge="1" parent="WIyWlLk6GJQsqaUBKTNV-1" source="vC2LmUWkRbwi-NhSBWyN-16" target="vC2LmUWkRbwi-NhSBWyN-13">
          <mxGeometry relative="1" as="geometry">
            <mxPoint x="580" y="380" as="sourcePoint" />
            <mxPoint x="510" y="280" as="targetPoint" />
          </mxGeometry>
        </mxCell>
      </root>
    </mxGraphModel>
  </diagram>
</mxfile>
